HIERARCHY
ROOT Hips
{
	OFFSET -0.001795 -0.223333 0.028219
	CHANNELS 6 Xposition Yposition Zposition Zrotation Yrotation Xrotation 
	JOINT LeftUpLeg
	{
		OFFSET 0.069520 -0.091406 -0.006815
		CHANNELS 3 Zrotation Yrotation Xrotation
		JOINT LeftLeg
		{
			OFFSET 0.034277 -0.375199 -0.004496
			CHANNELS 3 Zrotation Yrotation Xrotation
			JOINT LeftFoot
			{
				OFFSET -0.013596 -0.397961 -0.043693
				CHANNELS 3 Zrotation Yrotation Xrotation
				JOINT LeftToe
				{
					OFFSET 0.026358 -0.055791 0.119288
					CHANNELS 3 Zrotation Yrotation Xrotation
					End Site
					{
						OFFSET 0.000000 0.000000 0.000000
					}
				}
			}
		}
	}
	JOINT RightUpLeg
	{
		OFFSET -0.067670 -0.090522 -0.004320
		CHANNELS 3 Zrotation Yrotation Xrotation
		JOINT RightLeg
		{
			OFFSET -0.038290 -0.382569 -0.008850
			CHANNELS 3 Zrotation Yrotation Xrotation
			JOINT RightFoot
			{
				OFFSET 0.015774 -0.398415 -0.042312
				CHANNELS 3 Zrotation Yrotation Xrotation
				JOINT RightToe
				{
					OFFSET -0.025372 -0.048144 0.123348
					CHANNELS 3 Zrotation Yrotation Xrotation
					End Site
					{
						OFFSET 0.000000 0.000000 0.000000
					}
				}
			}
		}
	}
	JOINT Spine
	{
		OFFSET -0.002533 0.108963 -0.026696
		CHANNELS 3 Zrotation Yrotation Xrotation
		JOINT Spine1
		{
			OFFSET 0.005487 0.135180 0.001092
			CHANNELS 3 Zrotation Yrotation Xrotation
			JOINT Spine2
			{
				OFFSET 0.001457 0.052922 0.025425
				CHANNELS 3 Zrotation Yrotation Xrotation
				JOINT Neck
				{
					OFFSET -0.002778 0.213870 -0.042857
					CHANNELS 3 Zrotation Yrotation Xrotation
					JOINT Head
					{
						OFFSET 0.005152 0.064970 0.051349
						CHANNELS 3 Zrotation Yrotation Xrotation
						End Site
						{
							OFFSET 0.000000 0.000000 0.000000
						}
					}
				}
				JOINT LeftShoulder
				{
					OFFSET 0.078845 0.121749 -0.034090
					CHANNELS 3 Zrotation Yrotation Xrotation
					JOINT LeftArm
					{
						OFFSET 0.090977 0.030469 -0.008868
						CHANNELS 3 Zrotation Yrotation Xrotation
						JOINT LeftForeArm
						{
							OFFSET 0.259612 -0.012772 -0.027456
							CHANNELS 3 Zrotation Yrotation Xrotation
							JOINT LeftHand
							{
								OFFSET 0.249234 0.008986 -0.001171
								CHANNELS 3 Zrotation Yrotation Xrotation
								End Site
								{
									OFFSET 0.000000 0.000000 0.000000
								}
							}
						}
					}
				}
				JOINT RightShoulder
				{
					OFFSET -0.081759 0.118833 -0.038615
					CHANNELS 3 Zrotation Yrotation Xrotation
					JOINT RightArm
					{
						OFFSET -0.096012 0.032551 -0.009143
						CHANNELS 3 Zrotation Yrotation Xrotation
						JOINT RightForeArm
						{
							OFFSET -0.253742 -0.013329 -0.021401
							CHANNELS 3 Zrotation Yrotation Xrotation
							JOINT RightHand
							{
								OFFSET -0.255298 0.007772 -0.005559
								CHANNELS 3 Zrotation Yrotation Xrotation
								End Site
								{
									OFFSET 0.000000 0.000000 0.000000
								}
							}
						}
					}
				}
			}
		}
	}
}
MOTION
Frames: 16
Frame Time: 0.050000
-0.028940 0.948756 -0.107561 3.482071 -4.496488 21.693035 4.501030 -1.315336 -25.354974 0.370872 0.145923 -4.869458 0.004060 6.843176 23.126202 0.000000 0.000000 0.000000 -4.284422 2.001721 -23.880272 -13.735784 -0.272452 -9.802596 5.033532 -0.456609 21.796736 0.000000 0.000000 0.000000 1.440632 -0.809228 13.891666 2.008381 -0.827900 -0.458514 -12.242167 9.522198 -0.870051 22.951989 -16.424409 -4.502241 0.000000 0.000000 0.000000 35.850191 -41.376316 5.904780 34.867014 -37.854088 -13.706419 22.511979 2.358384 0.356354 0.000000 0.000000 0.000000 -26.558482 32.535308 5.825460 -13.217163 26.415748 -2.797283 -8.602891 -2.144981 0.352209 0.000000 0.000000 0.000000 
-0.030129 0.948896 -0.108194 3.397985 -4.274173 21.495427 4.723117 -1.286141 -25.271667 0.280826 0.146822 -4.743945 -0.096775 6.741019 23.135688 0.000000 0.000000 0.000000 -4.032878 2.018927 -23.853602 -13.835568 -0.212596 -9.439485 4.932100 -0.526147 21.643113 0.000000 0.000000 0.000000 1.436179 -0.817594 14.037576 1.968236 -0.818719 -0.294347 -12.464899 9.255729 -1.123982 21.983585 -15.858760 -3.989376 0.000000 0.000000 0.000000 35.629232 -41.408552 5.979909 35.068188 -37.930384 -13.797546 22.427860 2.519930 0.390413 0.000000 0.000000 0.000000 -25.667950 32.474380 6.073419 -12.185886 26.763307 -2.724548 -10.022599 -0.830229 0.349267 0.000000 0.000000 0.000000 
-0.031123 0.949089 -0.108598 3.180360 -4.355670 21.466554 5.031304 -1.222933 -25.140407 0.268827 0.152996 -4.881973 -0.044559 6.806300 23.228945 0.000000 0.000000 0.000000 -3.783179 2.058268 -23.893576 -13.713440 -0.205700 -9.390013 5.005199 -0.441692 21.657326 0.000000 0.000000 0.000000 1.412066 -0.815291 14.138022 2.053662 -0.840702 -0.718535 -12.580252 9.152886 -0.899613 21.171420 -15.268210 -3.874739 0.000000 0.000000 0.000000 34.986468 -41.646429 6.103275 34.938573 -37.920290 -13.688491 21.946795 2.328266 0.358617 0.000000 0.000000 0.000000 -25.013971 32.375450 6.223169 -11.249140 27.136784 -2.662798 -11.131901 0.733294 0.288892 0.000000 0.000000 0.000000 
-0.032057 0.949129 -0.108689 2.897046 -4.424062 21.227323 5.304037 -1.158427 -24.710015 0.405128 0.152690 -5.094826 0.008148 6.847329 23.214494 0.000000 0.000000 0.000000 -3.444761 2.105050 -23.908577 -13.604537 -0.135466 -8.941269 5.037693 -0.327537 21.433852 0.000000 0.000000 0.000000 1.420720 -0.806344 13.955466 2.077402 -0.857024 -0.549846 -12.589732 8.969253 -1.079393 20.459533 -15.129146 -2.858822 0.000000 0.000000 0.000000 34.010785 -42.266917 6.340643 34.649644 -38.202150 -13.651620 21.332001 2.269337 0.355662 0.000000 0.000000 0.000000 -23.676613 32.876289 6.703494 -10.606630 27.474940 -2.653049 -11.966859 1.504302 0.252707 0.000000 0.000000 0.000000 
-0.032850 0.948828 -0.108572 2.604202 -4.598101 21.294313 5.629341 -1.088643 -24.487728 0.486159 0.163144 -5.466481 0.130753 6.969699 23.225801 0.000000 0.000000 0.000000 -3.302861 2.150647 -24.105993 -13.207155 -0.118142 -8.769641 5.092806 -0.210119 21.273082 0.000000 0.000000 0.000000 1.374715 -0.789689 13.849984 2.083412 -0.851500 -0.738266 -12.465125 8.652935 -1.060601 19.808020 -14.852153 -2.218504 0.000000 0.000000 0.000000 33.018119 -42.649383 6.569392 34.174344 -38.363876 -13.437790 20.891974 2.124299 0.340635 0.000000 0.000000 0.000000 -23.208919 33.244531 6.940753 -9.962506 27.650006 -2.624442 -12.014652 2.231486 0.193417 0.000000 0.000000 0.000000 
-0.033573 0.948643 -0.108344 2.376072 -4.586253 21.105722 5.934005 -1.024796 -23.941351 0.446611 0.187184 -5.980176 0.140599 6.971205 23.229626 0.000000 0.000000 0.000000 -2.982717 2.202930 -24.233190 -13.220522 -0.020472 -8.142348 5.055648 -0.147123 20.947787 0.000000 0.000000 0.000000 1.374699 -0.781368 13.678382 2.162446 -0.894193 -0.531634 -12.549287 8.691429 -1.122506 19.935712 -15.134553 -1.834466 0.000000 0.000000 0.000000 32.215008 -42.858131 6.796668 33.331333 -38.784141 -13.370787 21.213387 1.708379 0.286863 0.000000 0.000000 0.000000 -22.496316 33.440670 7.168502 -9.106465 27.904860 -2.528075 -11.947069 2.549340 0.167106 0.000000 0.000000 0.000000 
-0.034101 0.948424 -0.107922 2.037855 -4.840695 20.813880 6.173205 -0.956183 -23.257599 0.676248 0.193050 -6.400782 0.294390 7.101145 23.157228 0.000000 0.000000 0.000000 -2.856502 2.214924 -24.050423 -12.677510 -0.005888 -7.950666 5.145399 0.045412 20.702374 0.000000 0.000000 0.000000 1.504868 -0.794962 13.527409 1.855395 -0.759616 -0.577890 -12.474774 9.081928 -0.784340 20.140426 -15.312069 -1.946341 0.000000 0.000000 0.000000 31.052446 -43.038341 7.079784 31.862389 -39.114825 -13.053599 22.496053 0.363757 0.077770 0.000000 0.000000 0.000000 -21.669307 33.660847 7.400971 -8.553577 28.138730 -2.468264 -11.403069 2.562045 0.156051 0.000000 0.000000 0.000000 
-0.034523 0.948205 -0.107197 1.727415 -5.011851 20.506074 6.625515 -0.863809 -22.834284 0.479041 0.200720 -6.337062 0.454595 7.227274 22.950821 0.000000 0.000000 0.000000 -2.850792 2.214071 -23.941527 -11.999317 0.036984 -7.521416 5.146860 0.166243 20.343711 0.000000 0.000000 0.000000 1.650408 -0.811577 13.353054 1.629161 -0.663435 -0.540212 -12.440390 9.660016 -0.611818 20.586844 -15.376370 -2.769389 0.000000 0.000000 0.000000 29.450114 -42.458916 7.487473 30.293961 -39.960878 -13.000928 24.653228 -1.539944 -0.282370 0.000000 0.000000 0.000000 -20.406792 33.743447 7.733245 -7.878156 28.282387 -2.365749 -11.914971 3.330241 0.108265 0.000000 0.000000 0.000000 
-0.034840 0.947660 -0.105966 1.436061 -5.043918 20.109200 6.776472 -0.824257 -22.226191 0.742978 0.190000 -6.421195 0.526634 7.243884 22.636468 0.000000 0.000000 0.000000 -2.784988 2.194716 -23.623377 -11.461052 0.068553 -7.176945 5.078770 0.234462 19.901758 0.000000 0.000000 0.000000 1.726176 -0.810524 13.058375 1.685866 -0.694835 -0.366684 -12.358910 10.175957 -0.548328 20.870337 -15.635748 -2.835394 0.000000 0.000000 0.000000 27.518564 -42.071406 7.960348 27.899616 -40.161957 -12.342665 27.258886 -4.194045 -0.910693 0.000000 0.000000 0.000000 -18.981060 33.929603 8.159401 -6.974685 28.486844 -2.235137 -12.731776 4.360103 0.034969 0.000000 0.000000 0.000000 
-0.035202 0.947204 -0.104316 1.137464 -5.083936 19.362834 7.025371 -0.764044 -21.310460 0.811496 0.181430 -6.328027 0.616806 7.256228 22.197836 0.000000 0.000000 0.000000 -2.522729 2.141961 -22.734011 -11.173033 0.069317 -7.130732 5.074164 0.377276 19.502972 0.000000 0.000000 0.000000 2.052059 -0.843641 12.568474 1.304589 -0.530648 -0.387108 -11.968940 10.661042 -0.309786 20.932441 -15.610839 -3.162166 0.000000 0.000000 0.000000 24.962453 -41.359912 8.494328 25.419323 -41.229745 -11.945703 29.644455 -7.366822 -1.774693 0.000000 0.000000 0.000000 -16.674755 33.565803 8.684041 -5.783609 29.349778 -2.130429 -14.169661 6.051520 -0.117807 0.000000 0.000000 0.000000 
-0.035606 0.946604 -0.102345 0.916983 -4.926762 18.766792 7.280405 -0.717851 -20.528909 0.754585 0.184760 -6.342569 0.604173 7.169962 21.774666 0.000000 0.000000 0.000000 -2.294063 2.080046 -21.886999 -11.002464 0.060235 -7.185376 4.965045 0.383502 19.112816 0.000000 0.000000 0.000000 2.157345 -0.831052 11.969887 1.379906 -0.558504 -0.731884 -11.913202 11.333905 0.154129 21.290636 -15.732008 -3.766398 0.000000 0.000000 0.000000 22.526090 -41.008158 9.012091 22.333938 -41.709835 -11.155513 32.188061 -11.080661 -2.981903 0.000000 0.000000 0.000000 -14.255435 33.091590 9.221801 -4.277884 30.018236 -1.927012 -16.322324 8.670645 -0.420560 0.000000 0.000000 0.000000 
-0.036093 0.946062 -0.100435 0.653292 -5.168488 18.277274 7.618545 -0.646241 -19.840868 0.632657 0.186242 -6.235725 0.806879 7.318853 21.394522 0.000000 0.000000 0.000000 -2.114741 2.052258 -21.322613 -10.680159 0.061884 -7.098984 5.035133 0.622579 18.725438 0.000000 0.000000 0.000000 2.583092 -0.847719 11.012932 0.924451 -0.361355 -0.715718 -11.576963 11.556202 0.629814 21.351397 -15.585564 -4.349544 0.000000 0.000000 0.000000 20.903217 -39.974339 9.172037 19.424814 -42.229160 -10.287121 33.651299 -13.800335 -3.945383 0.000000 0.000000 0.000000 -12.871750 32.616429 9.426457 -3.099953 31.251252 -1.816775 -17.938286 11.076456 -0.768947 0.000000 0.000000 0.000000 
-0.036570 0.945473 -0.098892 0.578935 -5.464532 17.665391 7.832690 -0.590841 -19.181167 0.352027 0.188066 -5.911985 1.022183 7.481323 20.984724 0.000000 0.000000 0.000000 -2.001818 2.004358 -20.650484 -10.602595 0.067078 -7.049900 5.130498 0.910696 18.321960 0.000000 0.000000 0.000000 2.579112 -0.813270 10.575490 0.586823 -0.208453 -1.120102 -11.065827 11.741182 0.705504 20.858592 -14.958725 -4.891885 0.000000 0.000000 0.000000 18.325713 -39.481162 9.619117 16.932743 -42.753429 -9.515947 34.830221 -17.176301 -5.088156 0.000000 0.000000 0.000000 -11.806590 32.022216 9.521153 -1.579170 32.774498 -1.612630 -20.078674 13.456686 -1.211406 0.000000 0.000000 0.000000 
-0.036964 0.944727 -0.097858 0.610031 -5.657520 16.885280 7.943796 -0.553662 -18.455377 0.041372 0.190893 -5.510146 1.172274 7.567447 20.513243 0.000000 0.000000 0.000000 -1.905312 1.926208 -19.758774 -10.691882 0.067291 -7.101213 5.180827 1.156007 17.897968 0.000000 0.000000 0.000000 2.819624 -0.797413 9.787089 0.114923 -0.005233 -1.096342 -10.272085 11.566951 0.752011 19.967059 -13.702877 -6.183118 0.000000 0.000000 0.000000 16.400710 -37.975231 9.703125 13.303521 -44.084993 -8.521400 35.791818 -19.967706 -6.111715 0.000000 0.000000 0.000000 -10.769035 31.140678 9.481930 0.281258 34.781978 -1.313067 -22.453106 15.484041 -1.713191 0.000000 0.000000 0.000000 
-0.037381 0.944007 -0.096924 0.534304 -5.560961 16.219687 8.044755 -0.531023 -17.914628 -0.007393 0.177991 -5.096649 1.179439 7.498238 20.023891 0.000000 0.000000 0.000000 -1.893763 1.860876 -19.144403 -10.448054 0.105724 -6.758699 5.035091 1.179129 17.348451 0.000000 0.000000 0.000000 2.959184 -0.761702 8.931541 -0.090281 0.086800 -1.611850 -9.508559 11.602148 1.091465 19.100688 -12.880784 -6.640137 0.000000 0.000000 0.000000 13.257370 -36.672130 9.985608 9.029706 -45.235765 -7.194622 38.414315 -24.470350 -8.176336 0.000000 0.000000 0.000000 -9.167948 29.964871 9.497421 3.677165 36.686893 -0.561806 -26.926452 18.201206 -2.644134 0.000000 0.000000 0.000000 
-0.037824 0.943643 -0.095698 0.505821 -5.252890 15.414749 7.999358 -0.531260 -17.162034 0.106351 0.160526 -4.851921 1.036152 7.265258 19.609412 0.000000 0.000000 0.000000 -1.938847 1.721167 -17.881234 -10.148785 0.045788 -7.195907 4.874585 1.064266 17.099877 0.000000 0.000000 0.000000 3.518328 -0.755120 7.746477 -0.722531 0.360825 -2.047672 -8.559806 11.058889 1.536944 17.844306 -11.792340 -7.094138 0.000000 0.000000 0.000000 10.266843 -34.317704 9.882834 2.270993 -46.277257 -4.802651 42.151670 -30.311703 -11.386332 0.000000 0.000000 0.000000 -6.388900 27.844366 9.448184 8.928592 38.484360 0.742668 -33.153956 23.701852 -4.751136 0.000000 0.000000 0.000000 
